# xmcd
#
# Track frame offsets:
#	150
#	18658
#	36294
#	50378
#	86201
#	109429
#	127725
#	143143
#	162082
#	178529
#	197325
#	213000
#	228804
#	248603
#	270302
#
# Disc length: 3872 seconds
#
# Revision: 2
# Processed by: cddbd v1.5.2PL0 Copyright (c) Steve Scherf et al.
# Submitted via: Rip'N'TagIt 1.5.0.0 
#
DISCID=bd0f1e0f
DTITLE=Barry White - Gold - The Very Best of
DYEAR=2005
DGENRE=blues
TTITLE0=Love's Theme
TTITLE1=I'm Gonna Love You Just A Little Bit More Baby
TTITLE2=I've Got So Much To Give
TTITLE3=Never Never Gonna Give Ya Up
TTITLE4=Honey Please Can't You See
TTITLE5=Can't Get Enough Of Your Love Babe
TTITLE6=You're The First The Last My Everything
TTITLE7=Satin Soul
TTITLE8=What Am I Gonna Do With You
TTITLE9=I'll Do For You Anything You Want Me To
TTITLE10=Let The Music Play
TTITLE11=You See The Trouble With Me
TTITLE12=Baby We Better Try To Get It Together
TTITLE13=Walking In The Rain (With The One I Love)
TTITLE14=It May Be Winter Outside (But In My Heart It's Spring)
EXTD=
EXTT0=
EXTT1=
EXTT2=
EXTT3=
EXTT4=
EXTT5=
EXTT6=
EXTT7=
EXTT8=
EXTT9=
EXTT10=
EXTT11=
EXTT12=
EXTT13=
EXTT14=
PLAYORDER=
